<svg xmlns="http://www.w3.org/2000/svg" viewBox="0 0 86.07 98.21">
  <defs>
    <linearGradient id="linear-gradient" x1="76.68" y1="73.04" x2="-10.09" y2="-4.34" gradientUnits="userSpaceOnUse">
      <stop offset="0" stop-color="#3c16d3"/>
      <stop offset=".44" stop-color="#1271ff"/>
      <stop offset=".99" stop-color="#2cf2ff"/>
    </linearGradient>
  </defs>
  <path fill="url(#linear-gradient)" d="M66.21,0H19.86C8.89,0,0,8.89,0,19.86v46.34c0,10.97,8.89,19.86,19.86,19.86h9.99c2.88,0,4.19.24,5.56,1.03,1.51.87,2.34,3.15,3.18,5.42,1.05,2.85,2.09,5.69,4.44,5.69s3.31-2.65,4.4-5.4c.94-2.39,1.92-4.84,3.74-5.71,1.47-.7,2.57-1.03,5.15-1.03h9.89c10.97,0,19.86-8.89,19.86-19.86V19.86c0-10.97-8.89-19.86-19.86-19.86Z"/>
  <path fill="#ffffff" d="M26.38,33.69v6.62h6.62v6.62h6.62v-6.62h6.62v6.62h6.62v-6.62h6.62v-6.62h-6.62v-6.62h6.62v-6.62h-6.62v-6.62h-6.62v6.62h-6.62v-6.62h-6.62v6.62h-6.62v6.62h6.62v6.62h-6.62ZM39.62,27.07h6.62v6.62h-6.62v-6.62Z"/>
  <path fill="#ffffff" d="M19.47,51.66c-1.13-1.67-3.39-2.11-5.05-.98-1.67,1.13-2.11,3.39-.98,5.05,6.63,9.82,17.65,15.68,29.49,15.68s22.86-5.86,29.51-15.69c1.13-1.67.68-3.93-.98-5.05-1.67-1.13-3.93-.68-5.05.98-5.29,7.81-14.06,12.48-23.47,12.48s-18.18-4.67-23.46-12.47Z"/>
</svg>