<svg xmlns="http://www.w3.org/2000/svg" viewBox="0 0 1000 1000">
  <defs>
    <radialGradient id="radial-gradient" cx="-294.5" cy="431" fx="-294.5" fy="431" r="52.4" gradientTransform="translate(-3520.9 -2203) rotate(164.3) scale(12.2 -8.8)" gradientUnits="userSpaceOnUse">
      <stop offset="0" stop-color="#ff005f"/>
      <stop offset="1" stop-color="#fc01d8"/>
    </radialGradient>
    <radialGradient id="radial-gradient1" cx="-303.1" cy="434.5" fx="-303.1" fy="434.5" r="52.4" gradientTransform="translate(7295.2 -3544.9) rotate(-90) scale(15.2 -16.2)" gradientUnits="userSpaceOnUse">
      <stop offset="0" stop-color="#fc0"/>
      <stop offset=".1" stop-color="#fc0"/>
      <stop offset=".6" stop-color="#fe4a05"/>
      <stop offset=".7" stop-color="#ff0f3f"/>
      <stop offset="1" stop-color="#fe0657" stop-opacity="0"/>
    </radialGradient>
    <radialGradient id="radial-gradient2" cx="-247.7" cy="377.3" fx="-247.7" fy="377.3" r="65" gradientTransform="translate(3313.8 1150.3) rotate(-59.9) scale(5.1 -6.6)" gradientUnits="userSpaceOnUse">
      <stop offset="0" stop-color="#fc0"/>
      <stop offset="1" stop-color="#fc0" stop-opacity="0"/>
    </radialGradient>
    <radialGradient id="radial-gradient3" cx="-360.8" cy="1040.1" fx="-360.8" fy="1040.1" r="67.1" gradientTransform="translate(-4039.8 -2251.3) rotate(164.3) scale(9.4 -3.2)" gradientUnits="userSpaceOnUse">
      <stop offset="0" stop-color="#780cff"/>
      <stop offset="1" stop-color="#820bff" stop-opacity="0"/>
    </radialGradient>
  </defs>

  <path fill="url(#radial-gradient)" d="M500.2,0C291.4,0,230.4.2,218.5,1.2c-42.8,3.6-69.5,10.3-98.5,24.8-22.4,11.1-40,24-57.5,42.1C30.8,101,11.6,141.5,4.6,189.7,1.2,213.1.2,217.8,0,337.3,0,377.1,0,429.5,0,499.8c0,208.6.2,269.6,1.2,281.5,3.5,41.7,10,67.9,23.8,96.6,26.5,54.9,77,96.2,136.5,111.5,20.6,5.3,43.4,8.2,72.6,9.6,12.4.5,138.6.9,264.9.9s252.6-.2,264.6-.8c33.8-1.6,53.5-4.2,75.2-9.8,59.9-15.5,109.5-56.1,136.5-111.8,13.6-28,20.5-55.2,23.6-94.8.7-8.6,1-146,1-283.2s-.3-274.3-1-282.9c-3.2-40.2-10-67.2-24-95.7-11.5-23.4-24.3-40.8-42.8-58.7-33.1-31.6-73.5-50.8-121.7-57.8C787.1,1.2,782.4.2,662.9,0h-162.7Z"/>
  <path fill="url(#radial-gradient1)" d="M500.2,0C291.4,0,230.4.2,218.5,1.2c-42.8,3.6-69.5,10.3-98.5,24.8-22.4,11.1-40,24-57.5,42.1C30.8,101,11.6,141.5,4.6,189.7,1.2,213.1.2,217.8,0,337.3,0,377.1,0,429.5,0,499.8c0,208.6.2,269.6,1.2,281.5,3.5,41.7,10,67.9,23.8,96.6,26.5,54.9,77,96.2,136.5,111.5,20.6,5.3,43.4,8.2,72.6,9.6,12.4.5,138.6.9,264.9.9s252.6-.2,264.6-.8c33.8-1.6,53.5-4.2,75.2-9.8,59.9-15.5,109.5-56.1,136.5-111.8,13.6-28,20.5-55.2,23.6-94.8.7-8.6,1-146,1-283.2s-.3-274.3-1-282.9c-3.2-40.2-10-67.2-24-95.7-11.5-23.4-24.3-40.8-42.8-58.7-33.1-31.6-73.5-50.8-121.7-57.8C787.1,1.2,782.4.2,662.9,0h-162.7Z"/>
  <path fill="url(#radial-gradient2)" d="M500.2,0C291.4,0,230.4.2,218.5,1.2c-42.8,3.6-69.5,10.3-98.5,24.8-22.4,11.1-40,24-57.5,42.1C30.8,101,11.6,141.5,4.6,189.7,1.2,213.1.2,217.8,0,337.3,0,377.1,0,429.5,0,499.8c0,208.6.2,269.6,1.2,281.5,3.5,41.7,10,67.9,23.8,96.6,26.5,54.9,77,96.2,136.5,111.5,20.6,5.3,43.4,8.2,72.6,9.6,12.4.5,138.6.9,264.9.9s252.6-.2,264.6-.8c33.8-1.6,53.5-4.2,75.2-9.8,59.9-15.5,109.5-56.1,136.5-111.8,13.6-28,20.5-55.2,23.6-94.8.7-8.6,1-146,1-283.2s-.3-274.3-1-282.9c-3.2-40.2-10-67.2-24-95.7-11.5-23.4-24.3-40.8-42.8-58.7-33.1-31.6-73.5-50.8-121.7-57.8C787.1,1.2,782.4.2,662.9,0h-162.7Z"/>
  <path fill="url(#radial-gradient3)" d="M500.2,0C291.4,0,230.4.2,218.5,1.2c-42.8,3.6-69.5,10.3-98.5,24.8-22.4,11.1-40,24-57.5,42.1C30.8,101,11.6,141.5,4.6,189.7,1.2,213.1.2,217.8,0,337.3,0,377.1,0,429.5,0,499.8c0,208.6.2,269.6,1.2,281.5,3.5,41.7,10,67.9,23.8,96.6,26.5,54.9,77,96.2,136.5,111.5,20.6,5.3,43.4,8.2,72.6,9.6,12.4.5,138.6.9,264.9.9s252.6-.2,264.6-.8c33.8-1.6,53.5-4.2,75.2-9.8,59.9-15.5,109.5-56.1,136.5-111.8,13.6-28,20.5-55.2,23.6-94.8.7-8.6,1-146,1-283.2s-.3-274.3-1-282.9c-3.2-40.2-10-67.2-24-95.7-11.5-23.4-24.3-40.8-42.8-58.7-33.1-31.6-73.5-50.8-121.7-57.8C787.1,1.2,782.4.2,662.9,0h-162.7Z"/>
  <path fill="#fff" d="M500.2,128.4c-101,0-113.6.4-153.3,2.2-39.6,1.8-66.6,8.1-90.2,17.3-24.5,9.5-45.2,22.2-65.9,42.8-20.7,20.7-33.4,41.4-42.9,65.8-9.2,23.6-15.5,50.6-17.3,90.2-1.8,39.6-2.2,52.3-2.2,153.2s.4,113.5,2.2,153.2c1.8,39.6,8.1,66.6,17.3,90.2,9.5,24.4,22.2,45.2,42.9,65.8,20.7,20.7,41.4,33.4,65.8,42.9,23.7,9.2,50.7,15.4,90.3,17.3,39.7,1.8,52.3,2.2,153.3,2.2s113.6-.4,153.3-2.2c39.6-1.8,66.6-8.1,90.3-17.3,24.4-9.5,45.2-22.2,65.8-42.9,20.7-20.7,33.4-41.4,42.9-65.8,9.1-23.6,15.4-50.6,17.3-90.2,1.8-39.6,2.2-52.3,2.2-153.2s-.5-113.6-2.2-153.2c-1.9-39.6-8.1-66.6-17.3-90.2-9.5-24.4-22.2-45.2-42.9-65.8-20.7-20.7-41.4-33.4-65.8-42.8-23.7-9.2-50.7-15.4-90.3-17.3-39.7-1.8-52.3-2.2-153.3-2.2h.1ZM466.8,195.4c9.9,0,20.9,0,33.4,0,99.3,0,111,.4,150.2,2.1,36.3,1.7,55.9,7.7,69,12.8,17.4,6.7,29.7,14.8,42.7,27.8,13,13,21.1,25.4,27.8,42.7,5.1,13.1,11.2,32.7,12.8,69,1.8,39.2,2.2,50.9,2.2,150.1s-.4,110.9-2.2,150.1c-1.7,36.2-7.7,55.9-12.8,69-6.7,17.3-14.8,29.7-27.8,42.7-13,13-25.4,21.1-42.7,27.8-13.1,5.1-32.8,11.1-69,12.8-39.2,1.8-51,2.2-150.2,2.2s-111-.4-150.2-2.2c-36.3-1.7-55.9-7.7-69-12.8-17.4-6.7-29.7-14.8-42.8-27.8-13-13-21.1-25.4-27.8-42.7-5.1-13.1-11.2-32.7-12.8-69-1.8-39.2-2.1-50.9-2.1-150.1s.4-110.9,2.1-150.1c1.7-36.2,7.7-55.9,12.8-69,6.7-17.3,14.8-29.7,27.8-42.7,13-13,25.4-21.1,42.8-27.8,13.1-5.1,32.8-11.1,69-12.8,34.3-1.5,47.6-2,116.9-2.1h0ZM698.7,257c-24.6,0-44.6,19.9-44.6,44.6s20,44.6,44.6,44.6,44.6-20,44.6-44.6-20-44.6-44.6-44.6h0ZM500.2,309.1c-105.4,0-190.9,85.4-190.9,190.8s85.5,190.8,190.9,190.8,190.9-85.4,190.9-190.8-85.5-190.8-190.9-190.8h0ZM500.2,376.1c68.4,0,123.9,55.4,123.9,123.8s-55.5,123.8-123.9,123.8-123.9-55.5-123.9-123.8,55.5-123.8,123.9-123.8h0Z"/>
</svg>