<svg xmlns="http://www.w3.org/2000/svg" viewBox="0 0 217.6 166.73">
  <path fill="#fff" d="M84.45,96.58l4.58,13.56c.37,1.08,1.07,1.93,1.28,3.09h-48.7s-19.85,53.45-19.85,53.45l-14.84.05-6.91-.02,7.29-18.57L60.25,5.66l20.11-.03,57.2,152.49,3.19,8.05-21.54.03L70.35,35.94l-22.54,60.62,36.64.02Z"/>
  <path fill="#fff" d="M183.85,54.42s-.1.02-.15.02l-23.57-18.02,15.02,129.43c.05.45-.2.76-.58.76h-9.33s-15.02-129.35-15.02-129.35c-.1-.88.54-1.48,1.34-1.48h64.77c.52,0,1.34.42,1.26,1.09l-15,129.7-6.58.05c-1.13.03-2.25.19-3.39-.19l15.05-130.2-23.83,18.19Z"/>
  <path fill="#ffcd01" d="M183.7,54.45s.11,0,.15-.02l14.63,24.38-14.71,66.39-14.71-66.39,14.64-24.36Z"/>
  <circle fill="#fff" cx="183.77" cy="15.87" r="15.87"/>
</svg>