<?xml version="1.0" encoding="UTF-8"?>
<svg id="Layer_1" data-name="Layer 1" xmlns="http://www.w3.org/2000/svg" viewBox="0 0 750 574.66">
  <defs>
    <style>
      .cls-1 {
        fill: #ffffff;
      }

      .cls-2 {
        fill: #ffcd01;
      }
    </style>
  </defs>
  <path class="cls-1" d="M291.06,332.88l15.78,46.75c1.26,3.74,3.69,6.67,4.41,10.64l-167.86.03-68.42,184.19-51.14.16-23.82-.08,25.13-64.01L207.65,19.52l69.3-.11,197.14,525.59,11,27.76-74.25.1L242.46,123.87l-77.69,208.95,126.28.06Z"/>
  <g>
    <path class="cls-1" d="M633.68,187.57c-.13.1-.36.07-.52.09l-81.24-62.12,51.78,446.1c.18,1.56-.67,2.62-2.01,2.62l-32.16-.05-51.76-445.79c-.35-3.03,1.86-5.11,4.63-5.11h223.23c1.81-.01,4.62,1.46,4.35,3.75l-51.7,447.05-22.67.17c-3.88.1-7.76.65-11.67-.65l51.86-448.75-82.12,62.69Z"/>
    <g>
      <path class="cls-2" d="M633.16,187.66c.16-.02.38.02.52-.09l50.42,84.04-50.7,228.84-50.7-228.83,50.46-83.96Z"/>
      <circle class="cls-1" cx="633.4" cy="54.71" r="54.71"/>
    </g>
  </g>
</svg>
